<svg xmlns="http://www.w3.org/2000/svg" xmlns:xlink="http://www.w3.org/1999/xlink" viewBox="0,0,256,256" width="48px" height="48px"><g fill="#e3bcaf" fill-rule="nonzero" stroke="none" stroke-width="1" stroke-linecap="butt" stroke-linejoin="miter" stroke-miterlimit="10" stroke-dasharray="" stroke-dashoffset="0" font-family="none" font-weight="none" font-size="none" text-anchor="none" style="mix-blend-mode: normal"><g transform="scale(5.33333,5.33333)"><path d="M23.97656,3.97852c-0.82766,0.01293 -1.48844,0.69381 -1.47656,1.52148v3c-0.00765,0.54095 0.27656,1.04412 0.74381,1.31683c0.46725,0.27271 1.04514,0.27271 1.51238,0c0.46725,-0.27271 0.75146,-0.77588 0.74381,-1.31683v-3c0.00582,-0.40562 -0.15288,-0.7963 -0.43991,-1.08296c-0.28703,-0.28666 -0.67792,-0.44486 -1.08353,-0.43852zM10.90234,9.4043c-0.61065,0.00015 -1.16026,0.37042 -1.38978,0.93629c-0.22952,0.56587 -0.09314,1.21439 0.34486,1.63988l2.12109,2.12109c0.58626,0.58626 1.53678,0.58626 2.12305,0c0.58626,-0.58626 0.58626,-1.53678 0,-2.12305l-2.12109,-2.12109c-0.28328,-0.29067 -0.67225,-0.45415 -1.07812,-0.45312zM37.05078,9.4043c-0.38956,0.01135 -0.75941,0.17386 -1.03125,0.45313l-2.12109,2.12109c-0.58626,0.58626 -0.58626,1.53678 0,2.12305c0.58626,0.58626 1.53678,0.58626 2.12305,0l2.12109,-2.12109c0.44468,-0.43137 0.57845,-1.09172 0.33671,-1.66214c-0.24175,-0.57042 -0.80928,-0.93356 -1.4285,-0.91403zM24,13c-6.05737,0 -11,4.94264 -11,11c0,6.05736 4.94263,11 11,11c6.05737,0 11,-4.94264 11,-11c0,-6.05736 -4.94263,-11 -11,-11zM24,16c4.43605,0 8,3.56395 8,8c0,4.43605 -3.56395,8 -8,8c-4.43605,0 -8,-3.56395 -8,-8c0,-4.43605 3.56395,-8 8,-8zM5.5,22.5c-0.54095,-0.00765 -1.04412,0.27656 -1.31683,0.74381c-0.27271,0.46725 -0.27271,1.04514 0,1.51238c0.27271,0.46725 0.77588,0.75146 1.31683,0.74381h3c0.54095,0.00765 1.04412,-0.27656 1.31683,-0.74381c0.27271,-0.46725 0.27271,-1.04514 0,-1.51238c-0.27271,-0.46725 -0.77588,-0.75146 -1.31683,-0.74381zM39.5,22.5c-0.54095,-0.00765 -1.04412,0.27656 -1.31683,0.74381c-0.27271,0.46725 -0.27271,1.04514 0,1.51238c0.27271,0.46725 0.77588,0.75146 1.31683,0.74381h3c0.54095,0.00765 1.04412,-0.27656 1.31683,-0.74381c0.27271,-0.46725 0.27271,-1.04514 0,-1.51238c-0.27271,-0.46725 -0.77588,-0.75146 -1.31683,-0.74381zM13.00977,33.44531c-0.38956,0.01135 -0.75941,0.17386 -1.03125,0.45313l-2.12109,2.12109c-0.37938,0.37922 -0.5276,0.93205 -0.3888,1.45019c0.1388,0.51814 0.54351,0.92286 1.06165,1.06165c0.51814,0.1388 1.07097,-0.00942 1.45019,-0.3888l2.12109,-2.12109c0.44468,-0.43137 0.57845,-1.09172 0.33671,-1.66214c-0.24175,-0.57042 -0.80928,-0.93356 -1.4285,-0.91403zM34.94336,33.44531c-0.61064,0.00015 -1.16026,0.37042 -1.38978,0.93629c-0.22952,0.56587 -0.09314,1.21439 0.34486,1.63988l2.12109,2.12109c0.58626,0.58626 1.53678,0.58626 2.12305,0c0.58626,-0.58626 0.58626,-1.53678 0,-2.12305l-2.12109,-2.12109c-0.28328,-0.29067 -0.67225,-0.45415 -1.07812,-0.45313zM23.97656,37.97852c-0.82766,0.01293 -1.48843,0.69381 -1.47656,1.52148v3c-0.00765,0.54095 0.27656,1.04412 0.74381,1.31683c0.46725,0.27271 1.04514,0.27271 1.51238,0c0.46725,-0.27271 0.75146,-0.77588 0.74381,-1.31683v-3c0.00582,-0.40562 -0.15288,-0.7963 -0.43991,-1.08296c-0.28703,-0.28666 -0.67792,-0.44486 -1.08353,-0.43852z"></path></g></g></svg>